PathFileType	4	(X/Y/Z)	/Users/itak/Documents/Research/Walk-IL/dataset/trc/00565_00009.trc
DataRate	CameraRate	NumFrames	NumMarkers	Units	OrigDataRate	OrigDataStartFrame	OrigNumFrames
100.000000	100.000000	4	54	mm	100.000000	0	573
Frame#	Time	RPSI			LPSI			L3			STRN			T10			C7			CLAV			RBAK			LBAK			LSHO			LUPA			LAEL			LAOL			LWTS			LWPS			LFRA			LHPS			LHTS			RSHO			RUPA			RAEL			RAOL			RWTS			RWPS			RFRA			RIFD			RHTS			RHPS			RBHD			LFHD			RFHD			LBHD			RHIP			RASI			LASI			LKNE			LTHI			LANK			LTIP			LTOE			LMT1			LMT5			LHEE			RKNE			RTHI			RANK			RTIP			RTOE			RMT1			RMT5			RHEE			LHIP			LIFD			*53			
		X1	Y1	Z1	X2	Y2	Z2	X3	Y3	Z3	X4	Y4	Z4	X5	Y5	Z5	X6	Y6	Z6	X7	Y7	Z7	X8	Y8	Z8	X9	Y9	Z9	X10	Y10	Z10	X11	Y11	Z11	X12	Y12	Z12	X13	Y13	Z13	X14	Y14	Z14	X15	Y15	Z15	X16	Y16	Z16	X17	Y17	Z17	X18	Y18	Z18	X19	Y19	Z19	X20	Y20	Z20	X21	Y21	Z21	X22	Y22	Z22	X23	Y23	Z23	X24	Y24	Z24	X25	Y25	Z25	X26	Y26	Z26	X27	Y27	Z27	X28	Y28	Z28	X29	Y29	Z29	X30	Y30	Z30	X31	Y31	Z31	X32	Y32	Z32	X33	Y33	Z33	X34	Y34	Z34	X35	Y35	Z35	X36	Y36	Z36	X37	Y37	Z37	X38	Y38	Z38	X39	Y39	Z39	X40	Y40	Z40	X41	Y41	Z41	X42	Y42	Z42	X43	Y43	Z43	X44	Y44	Z44	X45	Y45	Z45	X46	Y46	Z46	X47	Y47	Z47	X48	Y48	Z48	X49	Y49	Z49	X50	Y50	Z50	X51	Y51	Z51	X52	Y52	Z52	X53	Y53	Z53	X54	Y54	Z54	

1	0	-1289.665771484375	1014.201965332031	-254.5228881835938	-1264.106079101562	1019.002319335938	-385.468994140625	-1270.71142578125	1104.5947265625	-322.6445617675781	-1044.703369140625	1294.37158203125	-291.5820922851562	-1281.707885742188	1230.804321289062	-327.2392272949219	-1237.864013671875	1506.07861328125	-310.1403198242188	-1063.151489257812	1405.438354492188	-294.8043212890625	-1320.388671875	1380.67626953125	-234.3608551025391	-1258.380981445312	1452.163452148438	-405.3755187988281	-1150.731201171875	1476.488525390625	-475.2440490722656	-1148.66650390625	1346.375732421875	-550.55859375	-1119.946411132812	1125.627319335938	-562.3212890625	-1207.789428710938	1113.971435546875	-515.5374755859375	-1014.327331542969	893.1456909179688	-500.4389038085938	-1055.573364257812	863.7667236328125	-571.6044311523438	-1091.518920898438	1040.829711914062	-563.9967651367188	-1042.323974609375	805.2427368164062	-560.5110473632812	-992.1682739257812	815.8313598632812	-516.3829345703125	-1201.59912109375	1468.7529296875	-147.3764038085938	-1227.51953125	1403.099609375	-82.24829864501953	-1227.893432617188	1112.542358398438	-39.26468658447266	-1280.555419921875	1096.02685546875	-70.14221954345703	-1087.905151367188	893.2509765625	-71.68936157226562	-1139.77783203125	871.6751098632812	-9.383570671081543	-1216.869262695312	1056.622192382812	-34.31632232666016	-1080.132202148438	719.6925659179688	-69.52335357666016	-1058.902221679688	802.3269653320312	-57.78306198120117	-1122.004272460938	797.7171630859375	-11.44080924987793	-1175.532958984375	1686.217407226562	-237.4635925292969	-993.8197021484375	1710.352661132812	-334.868896484375	-1041.876953125	1703.821533203125	-199.6257019042969	-1113.840698242188	1692.3173828125	-391.1842346191406	-1192.560791015625	938.271484375	-112.4086074829102	-1094.8525390625	972.539794921875	-152.0818176269531	-1045.990600585938	963.2243041992188	-426.8895263671875	-1109.945556640625	493.0444641113281	-432.4579467773438	-1099.519897460938	659.3897705078125	-468.1363830566406	-1197.276733398438	29.5350170135498	-440.382080078125	-1175.496459960938	250.3515777587891	-448.118896484375	-994.6510620117188	36.44176483154297	-357.158935546875	-1071.266967773438	39.29004669189453	-331.1063842773438	-1073.179077148438	32.2413215637207	-439.0343322753906	-1272.619873046875	30.9438362121582	-393.016357421875	-1159.043579101562	495.3851928710938	-166.7615356445312	-1154.003540039062	783.9052124023438	-112.134635925293	-1247.984497070312	35.5953369140625	-204.0966491699219	-1161.8623046875	353.6790771484375	-182.9369506835938	-1023.33447265625	38.00742340087891	-212.2524719238281	-1081.453857421875	35.04124450683594	-263.8999938964844	-1119.654052734375	38.47085952758789	-167.6645355224609	-1295.140991210938	22.64777183532715	-263.0456237792969	-1108.226318359375	931.9596557617188	-487.3107299804688	-1005.325012207031	720.8551635742188	-496.4660949707031	nan	nan	nan	
2	0.01	-1289.81884765625	1014.161499023438	-254.5712432861328	-1264.225219726562	1018.953979492188	-385.5272216796875	-1270.864868164062	1104.640258789062	-322.7059326171875	-1044.756225585938	1294.363525390625	-291.6077575683594	-1281.845825195312	1230.8408203125	-327.2474670410156	-1237.881469726562	1506.096435546875	-310.1345825195312	-1063.212158203125	1405.418701171875	-294.8092346191406	-1320.458374023438	1380.721801757812	-234.4026031494141	-1258.4130859375	1452.20166015625	-405.3502502441406	-1150.78466796875	1476.501342773438	-475.2305908203125	-1148.7958984375	1346.408325195312	-550.5897827148438	-1120.272705078125	1125.652221679688	-562.4707641601562	-1208.111572265625	1114.070190429688	-515.6530151367188	-1015.118041992188	892.871337890625	-501.0054931640625	-1056.51025390625	863.6173095703125	-572.18408203125	-1092.024169921875	1040.7939453125	-564.2822875976562	-1043.476684570312	805.0337524414062	-561.194091796875	-993.2225341796875	815.5034790039062	-517.1122436523438	-1201.657348632812	1468.743896484375	-147.3598022460938	-1227.600341796875	1403.075927734375	-82.24300384521484	-1228.090454101562	1112.498046875	-39.36986923217773	-1280.746337890625	1096.002197265625	-70.22699737548828	-1088.233032226562	893.141845703125	-71.82606506347656	-1140.123168945312	871.6055297851562	-9.492691993713379	-1217.09521484375	1056.579467773438	-34.37380599975586	-1080.501342773438	719.5758666992188	-69.77128601074219	-1059.240478515625	802.2646484375	-57.93217468261719	-1122.326782226562	797.5859375	-11.62179851531982	-1175.499755859375	1686.229614257812	-237.4113922119141	-993.7960205078125	1710.30712890625	-334.8256225585938	-1041.8623046875	1703.770629882812	-199.5851440429688	-1113.820190429688	1692.315063476562	-391.1587524414062	-1192.706420898438	938.276123046875	-112.4513626098633	-1095.014282226562	972.5606079101562	-152.1978607177734	-1046.007080078125	963.3036499023438	-426.9375610351562	-1109.811767578125	493.0481872558594	-432.4104919433594	-1099.484252929688	659.4144897460938	-468.1540222167969	-1197.275512695312	29.53293800354004	-440.3807983398438	-1175.425415039062	250.3543853759766	-448.1044616699219	-994.6497802734375	36.43746948242188	-357.1540222167969	-1071.265258789062	39.27985763549805	-331.093994140625	-1073.176391601562	32.24654006958008	-439.0281982421875	-1272.6201171875	30.95332336425781	-393.0121765136719	-1159.06103515625	495.4085998535156	-166.7544250488281	-1154.147216796875	783.9072875976562	-112.0372543334961	-1247.985229492188	35.59589004516602	-204.0957946777344	-1161.850952148438	353.6859741210938	-182.9418640136719	-1023.313354492188	38.0023193359375	-212.283447265625	-1081.45068359375	35.03709030151367	-263.9016723632812	-1119.652221679688	38.47519302368164	-167.6703338623047	-1295.139770507812	22.64938735961914	-263.0438842773438	-1108.5888671875	932.1864624023438	-487.4683837890625	-1006.474731445312	720.5775146484375	-497.2269287109375	nan	nan	nan	
3	0.02	-1290.02783203125	1014.10498046875	-254.6336975097656	-1264.383911132812	1018.888916015625	-385.6029357910156	-1271.068115234375	1104.702880859375	-322.7898864746094	-1044.83056640625	1294.3515625	-291.6389770507812	-1282.027465820312	1230.888671875	-327.2604064941406	-1237.905151367188	1506.1201171875	-310.1266174316406	-1063.292846679688	1405.392822265625	-294.8149108886719	-1320.54931640625	1380.77978515625	-234.4565277099609	-1258.45751953125	1452.254150390625	-405.31787109375	-1150.85498046875	1476.518188476562	-475.2107238769531	-1148.970703125	1346.453491210938	-550.6307373046875	-1120.703979492188	1125.679809570312	-562.6719970703125	-1208.54052734375	1114.203491210938	-515.8024291992188	-1016.184265136719	892.49658203125	-501.76123046875	-1057.759887695312	863.4296875	-572.96044921875	-1092.700805664062	1040.75	-564.6698608398438	-1045.004516601562	804.7676391601562	-562.1097412109375	-994.6113891601562	815.0794677734375	-518.0887451171875	-1201.735717773438	1468.729736328125	-147.3350982666016	-1227.704467773438	1403.044799804688	-82.23670959472656	-1228.352416992188	1112.440551757812	-39.49908065795898	-1281.00244140625	1095.969848632812	-70.33529663085938	-1088.664428710938	892.9993286132812	-71.99980163574219	-1140.576171875	871.508056640625	-9.638044357299805	-1217.396118164062	1056.523315429688	-34.44841766357422	-1080.988891601562	719.4225463867188	-70.09351348876953	-1059.689697265625	802.18017578125	-58.12760925292969	-1122.761474609375	797.4192504882812	-11.85188007354736	-1175.456665039062	1686.249389648438	-237.3408050537109	-993.763671875	1710.242065429688	-334.7717895507812	-1041.833374023438	1703.700561523438	-199.5278778076172	-1113.792114257812	1692.310546875	-391.1239929199219	-1192.90087890625	938.2821044921875	-112.5040969848633	-1095.22119140625	972.5848999023438	-152.3240356445312	-1046.042114257812	963.4025268554688	-426.9957885742188	-1109.640747070312	493.0509033203125	-432.3465270996094	-1099.423828125	659.4373779296875	-468.1633911132812	-1197.273681640625	29.5305061340332	-440.3786010742188	-1175.3349609375	250.3584747314453	-448.0818481445312	-994.6470947265625	36.43212127685547	-357.1477355957031	-1071.262573242188	39.26659774780273	-331.0787658691406	-1073.173828125	32.25289154052734	-439.0201110839844	-1272.619506835938	30.9659423828125	-393.0058288574219	-1159.083862304688	495.4434204101562	-166.7329864501953	-1154.329467773438	783.9132080078125	-111.9141464233398	-1247.98583984375	35.59676361083984	-204.0947265625	-1161.830200195312	353.6958312988281	-182.9461517333984	-1023.28857421875	37.99666213989258	-212.3200225830078	-1081.44677734375	35.03224182128906	-263.9035034179688	-1119.650268554688	38.48062133789062	-167.6771697998047	-1295.138305664062	22.65137100219727	-263.0417175292969	-1109.109130859375	932.5220336914062	-487.6988830566406	-1007.98486328125	720.209228515625	-498.2403259277344	nan	nan	nan	
4	0.03	-1290.290893554688	1014.032470703125	-254.7082061767578	-1264.578857421875	1018.80810546875	-385.6937255859375	-1271.317504882812	1104.782104492188	-322.8954772949219	-1044.927368164062	1294.3349609375	-291.6732788085938	-1282.248168945312	1230.947021484375	-327.2789916992188	-1237.935180664062	1506.149047851562	-310.1164245605469	-1063.392456054688	1405.361450195312	-294.8204650878906	-1320.658935546875	1380.847900390625	-234.5204772949219	-1258.514404296875	1452.32080078125	-405.279296875	-1150.939819335938	1476.538696289062	-475.1838684082031	-1149.188354492188	1346.510986328125	-550.6800537109375	-1121.230102539062	1125.707275390625	-562.9223022460938	-1209.067993164062	1114.369873046875	-515.9805908203125	-1017.513305664062	892.0242919921875	-502.69287109375	-1059.300170898438	863.2135009765625	-573.921630859375	-1093.53759765625	1040.700805664062	-565.1558837890625	-1046.876708984375	804.457275390625	-563.2439575195312	-996.3062744140625	814.5718994140625	-519.2967529296875	-1201.832641601562	1468.709716796875	-147.3014678955078	-1227.828491210938	1403.006958007812	-82.22983551025391	-1228.674072265625	1112.371826171875	-39.64397811889648	-1281.320068359375	1095.93115234375	-70.46192169189453	-1089.1884765625	892.827392578125	-72.20316314697266	-1141.1240234375	871.3824462890625	-9.81721305847168	-1217.765869140625	1056.45556640625	-34.53830337524414	-1081.584106445312	719.2365112304688	-70.47914123535156	-1060.2392578125	802.0745239257812	-58.3647575378418	-1123.302490234375	797.2242431640625	-12.12152481079102	-1175.405151367188	1686.2783203125	-237.2527923583984	-993.7225341796875	1710.156127929688	-334.7105712890625	-1041.785278320312	1703.61181640625	-199.4532318115234	-1113.75634765625	1692.302856445312	-391.0799560546875	-1193.14111328125	938.2893676757812	-112.5637817382812	-1095.466064453125	972.6103515625	-152.4464263916016	-1046.103149414062	963.514892578125	-427.0596618652344	-1109.439331054688	493.0517272949219	-432.2672729492188	-1099.334594726562	659.4531860351562	-468.1578369140625	-1197.271484375	29.52789688110352	-440.3752746582031	-1175.228637695312	250.3638305664062	-448.0500183105469	-994.642578125	36.42599487304688	-357.1403198242188	-1071.2587890625	39.25082397460938	-331.0615844726562	-1073.171997070312	32.25997543334961	-439.0102233886719	-1272.618041992188	30.98138427734375	-392.9970092773438	-1159.111206054688	495.4909057617188	-166.6913146972656	-1154.54248046875	783.9241333007812	-111.7717361450195	-1247.985961914062	35.59797668457031	-204.0935668945312	-1161.797119140625	353.7088012695312	-182.9483947753906	-1023.262145996094	37.99110412597656	-212.3591461181641	-1081.442504882812	35.02714157104492	-263.9052124023438	-1119.648559570312	38.48686218261719	-167.6843566894531	-1295.136840820312	22.6535758972168	-263.0391235351562	-1109.79150390625	932.9733276367188	-488.0057067871094	-1009.821655273438	719.7567749023438	-499.4873352050781	nan	nan	nan	
